<?xml version="1.0" encoding="utf-8"?>
<!-- Generator: Adobe Illustrator 25.0.0, SVG Export Plug-In . SVG Version: 6.00 Build 0)  -->
<svg version="1.1" id="Layer_1" xmlns="http://www.w3.org/2000/svg" xmlns:xlink="http://www.w3.org/1999/xlink" x="0px" y="0px"
	 viewBox="0 0 595.28 595.28" style="enable-background:new 0 0 595.28 595.28;" xml:space="preserve">
<style type="text/css">
	.st0{fill-rule:evenodd;clip-rule:evenodd;fill:#650374;}
</style>
<g>
	<path class="st0" d="M348.95,365.94h18.43V174.38c14.69,23.14,28.81,46.62,41.37,71.02c9.15,17.79,12.32,32.28,9.94,52.14
		c-1.37,11.41-5.93,21.83-12.6,31.12c-2.43,3.39-5.11,6.57-7.98,9.6c-2.04,2.14-4.41,4.27-6.28,6.52
		c-4.56,5.48-7.11,13.09-6.95,20.25l-0.14,28.71c-0.04,8.08-2.77,11.34-10.95,11.34h-45.35v-323l-7.47-10.7L310,87.07v318h-88.9
		c-8.18,0-10.91-3.26-10.95-11.34l-0.01-3.01h-18.43l0.02,3.1c0.09,18.03,10.71,29.67,29.38,29.67c50.89,0,101.78,0,152.67,0
		c18.67,0,29.29-11.65,29.38-29.67l0.14-29.01c0,0-0.19-4.79,2.68-8.24c2.87-3.45,26.99-23.37,31.01-56.83
		c2.75-22.95-0.69-41.09-11.85-62.77c-22.53-43.77-49.65-84.12-76.18-124.76C348.95,196.79,348.95,281.36,348.95,365.94
		L348.95,365.94z M266.11,155.08l18.43-27.98v238.84h-18.43V155.08L266.11,155.08z M226.21,142.37
		c18.53-28.46,36.23-55.91,60.12-90.47c6.96-8.89,11.66-8.96,21.26-0.05c-21.3,31.64-42.03,63.12-63.01,95.77v218.32
		c-10.16,0-20.32,0-30.48,0c-6.23,0.02-13.99,1.89-25.2-9.36c-2.87-3.45-26.99-23.37-31.01-56.83
		c-2.75-22.95,0.69-41.09,11.85-62.77c11.68-22.7,24.61-44.49,38.04-65.87v35.31c-7.57,12.79-14.84,25.75-21.66,38.99
		c-9.15,17.79-12.32,32.28-9.94,52.14c1.37,11.41,5.93,21.83,12.6,31.12c5.1,7.09,10.07,12.21,16.54,18.85h20.82
		C226.15,279.15,226.21,210.65,226.21,142.37z"/>
	<path class="st0" d="M177.98,453.5v0.4c-1.27,1.32-2.1,3.46-2.5,6.42c-0.4,2.96-0.59,6.34-0.59,10.14v7.21l17.82-2.22v-4.99
		c0-3.8-0.2-7.18-0.59-10.14c-0.4-2.96-1.23-5.1-2.5-6.42v-0.4h20.44v0.4c-1.27,1.32-2.1,3.46-2.5,6.42
		c-0.4,2.96-0.59,6.34-0.59,10.14V492c0,3.8,0.2,7.18,0.59,10.14c0.4,2.96,1.23,5.1,2.5,6.42v0.4h-20.44v-0.4
		c1.27-1.32,2.1-3.46,2.5-6.42c0.4-2.96,0.59-6.34,0.59-10.14v-6.34l-17.82,2.22V492c0,3.8,0.2,7.18,0.59,10.14
		c0.4,2.96,1.23,5.1,2.5,6.42v0.4h-20.44v-0.4c1.27-1.32,2.1-3.46,2.5-6.42s0.59-6.34,0.59-10.14v-21.55c0-3.8-0.2-7.18-0.59-10.14
		s-1.23-5.1-2.5-6.42v-0.4H177.98L177.98,453.5z M245.07,472.91l-6.18,15.84l11.88-1.5L245.07,472.91L245.07,472.91z M234.54,499.6
		c-0.42,1.21-0.73,2.24-0.91,3.09c-0.19,0.84-0.28,1.61-0.28,2.3c0,0.95,0.12,1.7,0.36,2.26c0.24,0.55,0.49,0.99,0.75,1.31v0.4
		h-20.83v-0.4c1.69-1.85,3.18-4.12,4.48-6.81c1.29-2.69,2.39-5.23,3.29-7.61l12.83-32.48c0.53-1.37,0.86-2.39,0.99-3.05
		c0.13-0.66,0.2-1.1,0.2-1.31c0-0.9-0.12-1.61-0.36-2.14c-0.24-0.53-0.49-0.95-0.75-1.27v-0.4h18.54l16,40.64
		c0.9,2.38,1.99,4.91,3.29,7.61c1.29,2.69,2.79,4.96,4.48,6.81v0.4h-20.83v-0.4c0.26-0.32,0.52-0.75,0.75-1.31
		c0.24-0.55,0.36-1.31,0.36-2.26c0-0.69-0.09-1.47-0.28-2.34c-0.18-0.87-0.51-1.89-0.99-3.05l-1.03-2.61l-19.96,2.46L234.54,499.6
		L234.54,499.6z M300.21,453.5v0.4c-1.27,1.32-2.1,3.46-2.5,6.42c-0.4,2.96-0.59,6.34-0.59,10.14v26.38h9.82
		c1.74,0,3.39-0.01,4.95-0.04c1.56-0.03,3.04-0.16,4.44-0.4c1.4-0.24,2.72-0.62,3.96-1.15c1.24-0.53,2.44-1.27,3.6-2.22l0.4,0.08
		l-2.93,16.87l-0.4,0.16c-0.63-0.26-1.45-0.48-2.46-0.63c-1-0.16-2.14-0.28-3.41-0.36c-1.27-0.08-2.63-0.13-4.08-0.16
		c-1.45-0.03-2.94-0.04-4.48-0.04h-26.78v-0.4c1.27-1.32,2.1-3.46,2.5-6.42c0.4-2.96,0.59-6.34,0.59-10.14v-21.55
		c0-3.8-0.2-7.18-0.59-10.14c-0.4-2.96-1.23-5.1-2.5-6.42v-0.4H300.21L300.21,453.5z M358.12,472.91l-6.18,15.84l11.88-1.5
		L358.12,472.91L358.12,472.91z M347.58,499.6c-0.42,1.21-0.73,2.24-0.91,3.09c-0.19,0.84-0.28,1.61-0.28,2.3
		c0,0.95,0.12,1.7,0.36,2.26c0.24,0.55,0.49,0.99,0.75,1.31v0.4h-20.83v-0.4c1.69-1.85,3.18-4.12,4.48-6.81
		c1.29-2.69,2.39-5.23,3.29-7.61l12.83-32.48c0.53-1.37,0.86-2.39,0.99-3.05c0.13-0.66,0.2-1.1,0.2-1.31c0-0.9-0.12-1.61-0.36-2.14
		c-0.24-0.53-0.49-0.95-0.75-1.27v-0.4h18.54l16,40.64c0.9,2.38,1.99,4.91,3.29,7.61c1.29,2.69,2.79,4.96,4.48,6.81v0.4h-20.83v-0.4
		c0.26-0.32,0.51-0.75,0.75-1.31c0.24-0.55,0.36-1.31,0.36-2.26c0-0.69-0.09-1.47-0.28-2.34c-0.18-0.87-0.52-1.89-0.99-3.05
		l-1.03-2.61l-19.96,2.46L347.58,499.6L347.58,499.6z M413.25,453.5v0.4c-1.27,1.32-2.1,3.46-2.5,6.42
		c-0.4,2.96-0.59,6.34-0.59,10.14v26.38h9.82c1.74,0,3.39-0.01,4.95-0.04c1.56-0.03,3.04-0.16,4.44-0.4
		c1.4-0.24,2.72-0.62,3.96-1.15c1.24-0.53,2.44-1.27,3.6-2.22l0.4,0.08l-2.93,16.87l-0.4,0.16c-0.63-0.26-1.45-0.48-2.46-0.63
		c-1-0.16-2.14-0.28-3.41-0.36c-1.27-0.08-2.63-0.13-4.08-0.16c-1.45-0.03-2.94-0.04-4.48-0.04h-26.78v-0.4
		c1.27-1.32,2.1-3.46,2.5-6.42c0.4-2.96,0.59-6.34,0.59-10.14v-21.55c0-3.8-0.2-7.18-0.59-10.14c-0.4-2.96-1.23-5.1-2.5-6.42v-0.4
		H413.25z"/>
	<path class="st0" d="M163.33,549.41c0,0.4-0.19,0.6-0.58,0.6h-4.37c-0.19,0-0.35-0.05-0.45-0.15c-0.1-0.1-0.16-0.25-0.16-0.45
		v-21.22c0-0.39,0.2-0.58,0.6-0.58h4.37c0.39,0,0.58,0.19,0.58,0.58V549.41L163.33,549.41z M199.99,527.59
		c0.19,0,0.34,0.05,0.45,0.15c0.1,0.11,0.15,0.25,0.15,0.45v21.24c0,0.19-0.05,0.34-0.16,0.45c-0.1,0.1-0.25,0.15-0.43,0.15h-4.17
		c-0.48,0-0.87-0.23-1.17-0.69l-8.62-13.12v13.21c0,0.19-0.05,0.34-0.16,0.45c-0.1,0.1-0.25,0.15-0.43,0.15h-4.37
		c-0.18,0-0.33-0.05-0.44-0.15c-0.11-0.1-0.16-0.25-0.16-0.45v-21.24c0-0.19,0.06-0.34,0.16-0.45c0.11-0.1,0.26-0.15,0.44-0.15h4.52
		c0.44,0,0.82,0.24,1.15,0.72l8.3,12.34v-12.46c0-0.19,0.05-0.34,0.15-0.45c0.1-0.1,0.25-0.15,0.43-0.15H199.99L199.99,527.59z
		 M217.71,528.4c0-0.23,0.08-0.42,0.24-0.58c0.16-0.16,0.35-0.24,0.58-0.24h6.97c2.18,0,4.12,0.48,5.84,1.44
		c1.71,0.95,3.05,2.28,4.01,3.99c0.96,1.71,1.44,3.64,1.44,5.81c0,2.16-0.48,4.09-1.44,5.79c-0.96,1.7-2.3,3.02-4.01,3.98
		c-1.72,0.95-3.66,1.42-5.84,1.42h-6.97c-0.23,0-0.42-0.08-0.58-0.24c-0.16-0.16-0.24-0.35-0.24-0.58V528.4L217.71,528.4z
		 M225.5,544.73c1.08,0,2.06-0.26,2.94-0.79c0.87-0.52,1.56-1.24,2.05-2.14c0.49-0.9,0.74-1.9,0.74-2.98c0-1.13-0.25-2.15-0.74-3.07
		c-0.49-0.92-1.17-1.64-2.04-2.17c-0.87-0.53-1.85-0.79-2.94-0.79l-2.21,0.02v11.92H225.5L225.5,544.73z M251.86,538.85
		c0-2.15,0.52-4.12,1.55-5.9c1.03-1.79,2.44-3.19,4.23-4.23c1.79-1.03,3.76-1.54,5.9-1.54c2.14,0,4.1,0.51,5.88,1.54
		c1.79,1.04,3.19,2.45,4.23,4.23c1.04,1.78,1.55,3.75,1.55,5.9c0,2.14-0.51,4.1-1.55,5.87c-1.03,1.78-2.44,3.18-4.22,4.21
		c-1.78,1.03-3.75,1.55-5.89,1.55c-2.15,0-4.12-0.52-5.9-1.55c-1.79-1.03-3.2-2.44-4.23-4.21
		C252.38,542.94,251.86,540.99,251.86,538.85L251.86,538.85z M257.42,538.85c0,1.12,0.27,2.14,0.81,3.06
		c0.54,0.92,1.28,1.66,2.22,2.2c0.94,0.54,1.97,0.81,3.1,0.81c1.13,0,2.15-0.27,3.08-0.81c0.93-0.55,1.67-1.28,2.2-2.2
		c0.54-0.93,0.82-1.95,0.82-3.06c0-1.13-0.27-2.15-0.82-3.09c-0.54-0.94-1.28-1.68-2.22-2.22c-0.94-0.54-1.96-0.81-3.07-0.81
		c-1.13,0-2.16,0.27-3.1,0.81c-0.93,0.54-1.68,1.28-2.22,2.22C257.68,536.7,257.42,537.72,257.42,538.85L257.42,538.85z
		 M310.81,527.59c0.19,0,0.34,0.05,0.45,0.15c0.1,0.11,0.15,0.25,0.15,0.45v21.24c0,0.19-0.05,0.34-0.16,0.45
		c-0.11,0.1-0.25,0.15-0.43,0.15h-4.17c-0.48,0-0.87-0.23-1.17-0.69l-8.62-13.12v13.21c0,0.19-0.05,0.34-0.16,0.45
		c-0.1,0.1-0.25,0.15-0.43,0.15h-4.37c-0.18,0-0.33-0.05-0.44-0.15c-0.11-0.1-0.16-0.25-0.16-0.45v-21.24
		c0-0.19,0.06-0.34,0.16-0.45c0.11-0.1,0.26-0.15,0.44-0.15h4.52c0.44,0,0.82,0.24,1.15,0.72l8.3,12.34v-12.46
		c0-0.19,0.05-0.34,0.15-0.45c0.1-0.1,0.25-0.15,0.43-0.15H310.81L310.81,527.59z M328.54,528.4c0-0.26,0.07-0.46,0.21-0.6
		c0.15-0.15,0.35-0.22,0.6-0.22h14.44c0.25,0,0.45,0.07,0.6,0.22c0.14,0.14,0.21,0.34,0.21,0.6v3.53c0,0.26-0.07,0.46-0.21,0.6
		c-0.14,0.14-0.34,0.21-0.6,0.21h-9.75v3.71h7.4c0.28,0,0.5,0.07,0.65,0.23c0.16,0.15,0.24,0.35,0.24,0.62v2.92
		c0,0.26-0.08,0.46-0.24,0.6c-0.16,0.14-0.38,0.21-0.65,0.21h-7.4v3.82h9.75c0.35,0,0.62,0.09,0.82,0.28c0.2,0.19,0.3,0.44,0.3,0.76
		v3.32c0,0.25-0.07,0.44-0.22,0.58c-0.15,0.14-0.35,0.21-0.61,0.21h-14.73c-0.26,0-0.46-0.07-0.6-0.21
		c-0.14-0.14-0.21-0.34-0.21-0.59V528.4L328.54,528.4z M360.98,548.16c-0.27-0.16-0.4-0.38-0.4-0.64c0-0.16,0.06-0.35,0.17-0.55
		l1.81-3.25c0.16-0.29,0.39-0.43,0.69-0.43c0.14,0,0.31,0.04,0.51,0.12c1.01,0.46,1.98,0.82,2.93,1.08
		c0.94,0.26,1.93,0.39,2.98,0.39c0.78,0,1.43-0.15,1.97-0.45c0.53-0.3,0.81-0.71,0.81-1.22c0-0.38-0.15-0.7-0.46-0.96
		c-0.3-0.27-0.73-0.51-1.29-0.72c-0.55-0.22-1.34-0.47-2.36-0.77c-1.58-0.47-2.87-0.97-3.87-1.51c-0.99-0.54-1.75-1.22-2.28-2.05
		c-0.53-0.83-0.79-1.87-0.79-3.13c0-1.43,0.38-2.67,1.14-3.7c0.76-1.03,1.76-1.81,3.02-2.34c1.26-0.52,2.62-0.79,4.1-0.79
		c0.93,0,1.87,0.11,2.82,0.32c0.95,0.21,1.81,0.49,2.59,0.81c0.78,0.33,1.41,0.65,1.9,0.98c0.31,0.2,0.46,0.43,0.46,0.69
		c0,0.16-0.07,0.35-0.2,0.59l-1.83,3.32c-0.14,0.26-0.35,0.4-0.63,0.4c-0.18,0-0.41-0.07-0.68-0.2c-0.86-0.44-1.65-0.77-2.37-1.01
		c-0.72-0.23-1.53-0.35-2.45-0.35c-0.64,0-1.2,0.14-1.67,0.41c-0.47,0.28-0.71,0.62-0.71,1.04c0,0.45,0.3,0.84,0.91,1.16
		c0.6,0.32,1.58,0.68,2.92,1.07c1.66,0.49,3,0.98,4.02,1.48c1.02,0.49,1.85,1.17,2.47,2.02c0.62,0.85,0.94,1.96,0.94,3.33
		c0,1.44-0.39,2.7-1.15,3.78c-0.77,1.08-1.81,1.91-3.13,2.48c-1.32,0.57-2.78,0.86-4.37,0.86c-1.49,0-2.99-0.19-4.48-0.58
		C363.53,549.45,362.18,548.89,360.98,548.16L360.98,548.16z M399.78,549.41c0,0.4-0.19,0.6-0.58,0.6h-4.37
		c-0.19,0-0.35-0.05-0.45-0.15c-0.1-0.1-0.16-0.25-0.16-0.45v-21.22c0-0.39,0.2-0.58,0.6-0.58h4.37c0.39,0,0.58,0.19,0.58,0.58
		V549.41L399.78,549.41z M437.02,549.13c0.05,0.13,0.08,0.25,0.08,0.35c0,0.17-0.06,0.3-0.18,0.4c-0.12,0.1-0.28,0.15-0.5,0.15
		h-4.36c-0.21,0-0.41-0.07-0.59-0.21c-0.18-0.14-0.31-0.31-0.39-0.53l-1.02-2.94h-7.78l-1,2.93c-0.06,0.21-0.18,0.39-0.37,0.53
		c-0.18,0.14-0.39,0.21-0.63,0.21h-4.34c-0.21,0-0.38-0.05-0.5-0.15c-0.12-0.1-0.18-0.23-0.18-0.41c0-0.1,0.03-0.22,0.08-0.35
		l8.19-20.79c0.1-0.24,0.25-0.42,0.43-0.55c0.19-0.14,0.39-0.2,0.61-0.2h3.24c0.21,0,0.42,0.07,0.61,0.2
		c0.19,0.14,0.32,0.32,0.41,0.54L437.02,549.13L437.02,549.13z M428.49,541.72l-2.32-6.8l-2.32,6.8H428.49z"/>
</g>
</svg>
